# xmcd CD database file
#
# Track frame offsets:
#	150
#	35922
#	54862
#	82570
#	95837
#	108987
#	151157
#	182572
#	209942
#	226975
#	241582
#	255217
#	273155
#
# Disc length: 3947 seconds
#
# Revision: 0
# Processed by: cddbd v1.5.1PL0 Copyright (c) Steve Scherf et al.
# Submitted via: CDex 1.51
#
DISCID=9b0f690d
DTITLE=Various Artist - Jazzを聴きたくて 4 Relaxation〜カモミールとやすらぎのシエスタ
DYEAR=2003
DGENRE=Jazz
TTITLE0=処女航海/ハービー・ハンコック
TTITLE1=ディア・オールド・ストックホルム/マイルス・デイヴィス
TTITLE2=コートにスミレを/ユタ・ヒップ・ウィズ・ズート・シムズ
TTITLE3=テンダリー/ナット・キング・コール
TTITLE4=モナリザ/アール・クルー
TTITLE5=クール・ストラッティン/ソニー・クラーク
TTITLE6=ル・クワフール/デクスター・ゴードン
TTITLE7=レフト・アローン/マル・ウォルドロン
TTITLE8=ジーズ・フーリッシュ・シングス/サラ・ヴォーン
TTITLE9=ヴァーモントの月/ジョニー・スミス
TTITLE10=イマジネーション/チェット・ベイカー
TTITLE11=ゴッド・ブレス・ザ・チャイルド/スタンリー・タレンタイン feat.シャーリー・スコット
TTITLE12=ジムノペディ/ロン・カーター
EXTD=YEAR: 2003
EXTT0=
EXTT1=
EXTT2=
EXTT3=
EXTT4=
EXTT5=
EXTT6=
EXTT7=
EXTT8=
EXTT9=
EXTT10=
EXTT11=
EXTT12=
PLAYORDER=
